<?xml version="1.0" standalone="no"?>
<!DOCTYPE svg PUBLIC "-//W3C//DTD SVG 20010904//EN"
 "http://www.w3.org/TR/2001/REC-SVG-20010904/DTD/svg10.dtd">
<svg version="1.0" xmlns="http://www.w3.org/2000/svg"
 width="1987.000000pt" height="1332.000000pt" viewBox="0 0 1987.000000 1332.000000"
 preserveAspectRatio="xMidYMid meet">

<g transform="translate(0.000000,1332.000000) scale(0.100000,-0.100000)"
fill="#000000" stroke="none">
<path d="M6783 12659 c-130 -41 -252 -155 -305 -286 l-23 -58 -3 -3315 c-3
-3063 -2 -3320 14 -3378 42 -161 200 -307 368 -342 35 -7 816 -9 2455 -8
l2404 3 -573 585 c-315 321 -588 607 -606 635 -49 74 -71 170 -56 253 13 77
56 169 109 233 21 25 401 399 845 830 760 740 810 787 883 825 74 37 83 39
170 39 86 0 96 -2 170 -39 90 -44 113 -66 848 -814 l377 -384 0 2404 c0 2613
3 2464 -55 2577 -43 86 -127 166 -223 214 l-85 42 -3326 2 c-3289 2 -3327 2
-3388 -18z m3057 -1452 c203 -48 362 -116 520 -222 471 -316 726 -834 688
-1403 -36 -550 -374 -1048 -873 -1287 -490 -234 -1069 -195 -1520 103 -721
475 -917 1441 -439 2157 226 338 592 582 989 659 125 24 129 24 335 21 166 -3
211 -7 300 -28z"/>
<path d="M9345 10909 c-531 -72 -940 -457 -1051 -989 -24 -114 -25 -342 -1
-463 48 -239 156 -444 328 -622 174 -180 386 -298 631 -351 113 -25 323 -29
443 -10 598 99 1035 612 1035 1217 0 335 -134 647 -381 885 -168 161 -356 262
-589 315 -100 23 -314 32 -415 18z"/>
<path d="M11603 7517 c-750 -750 -813 -815 -813 -845 0 -31 43 -77 513 -552
l512 -519 837 -1 c659 0 839 3 845 13 4 6 9 390 11 852 l3 840 -513 513 c-480
479 -516 512 -548 512 -33 0 -83 -48 -847 -813z"/>
<path d="M7395 4113 c-332 -27 -561 -83 -791 -193 -200 -95 -336 -192 -485
-346 -278 -289 -441 -667 -500 -1159 -19 -161 -17 -549 5 -705 48 -355 152
-640 319 -877 76 -108 246 -279 352 -355 240 -170 559 -283 900 -318 155 -16
618 -8 783 14 241 32 456 83 623 147 l79 30 -2 1027 -3 1027 -665 0 -665 0 -3
-322 -2 -323 250 0 250 0 -2 -457 -3 -458 -80 -24 c-110 -32 -303 -40 -433
-17 -418 73 -674 388 -762 940 -19 119 -28 377 -20 528 25 419 131 693 354
913 203 200 436 285 783 285 285 0 525 -50 751 -157 41 -19 75 -33 76 -31 1 1
14 156 28 343 20 253 24 342 15 347 -39 24 -347 94 -517 117 -185 26 -481 37
-635 24z"/>
<path d="M12415 4110 c-618 -63 -1118 -412 -1379 -960 -146 -308 -201 -590
-201 -1020 1 -291 13 -407 65 -625 157 -661 606 -1134 1227 -1295 162 -42 246
-52 476 -57 249 -6 371 3 579 43 126 24 372 97 382 113 6 8 -30 720 -36 726
-2 2 -57 -23 -122 -56 -213 -106 -387 -149 -606 -149 -154 0 -273 19 -390 64
-121 45 -188 87 -287 180 -216 203 -324 477 -355 898 -20 279 10 564 83 782
124 371 390 606 744 655 273 38 571 -13 813 -139 60 -32 94 -45 97 -37 2 7 11
147 19 312 9 165 19 321 22 346 l5 46 -138 46 c-158 54 -303 89 -453 112 -127
19 -421 27 -545 15z"/>
<path d="M430 2130 l0 -1920 440 0 440 0 0 1920 0 1920 -440 0 -440 0 0 -1920z"/>
<path d="M2080 2130 l0 -1920 375 0 375 0 2 1400 3 1399 581 -1397 581 -1397
511 -3 512 -2 0 1920 0 1920 -380 0 -380 0 -2 -1395 -3 -1396 -399 963 c-220
530 -480 1158 -579 1396 l-179 432 -509 0 -509 0 0 -1920z"/>
<path d="M9360 2130 l0 -1920 440 0 440 0 0 1920 0 1920 -440 0 -440 0 0
-1920z"/>
<path d="M14961 3653 c-161 -493 -1106 -3390 -1115 -3420 l-7 -23 430 0 430 0
11 43 c7 23 59 215 116 425 57 211 104 386 104 388 0 2 280 3 621 2 l622 -3
110 -427 110 -428 458 0 458 0 -13 43 c-7 23 -275 887 -597 1920 l-583 1877
-513 0 -512 0 -130 -397z"/>
<path d="M17160 3710 l0 -340 420 0 420 0 0 -1580 0 -1580 445 0 445 0 2 1578
3 1577 418 3 417 2 0 340 0 340 -1285 0 -1285 0 0 -340z"/>
<path d="M4348 3 c17 -2 47 -2 65 0 17 2 3 4 -33 4 -36 0 -50 -2 -32 -4z"/>
<path d="M8198 3 c17 -2 47 -2 65 0 17 2 3 4 -33 4 -36 0 -50 -2 -32 -4z"/>
</g>
</svg>
